<svg width="1200" height="300" viewBox="0 0 1200 300" fill="none" xmlns="http://www.w3.org/2000/svg" role="img" aria-labelledby="title desc">
  <title id="title">DerMayer1 profile banner</title>
  <desc id="desc">A minimal dark banner about operational software, automation, AI and orchestration.</desc>
  <rect width="1200" height="300" fill="#0D1117"/>
  <g opacity="0.72">
    <path d="M96 236H1104" stroke="#30363D"/>
    <path d="M96 82H1104" stroke="#21262D"/>
    <path d="M96 158H1104" stroke="#161B22"/>
  </g>
  <path d="M96 236C206 198 290 122 392 142C496 162 520 230 628 218C760 203 790 86 916 82C1000 79 1068 118 1104 146" stroke="#8B949E" stroke-width="2.5" stroke-linecap="round"/>
  <g fill="#0D1117" stroke="#8B949E" stroke-width="2">
    <circle cx="96" cy="236" r="5"/>
    <circle cx="392" cy="142" r="5"/>
    <circle cx="628" cy="218" r="5"/>
    <circle cx="916" cy="82" r="5"/>
    <circle cx="1104" cy="146" r="5"/>
  </g>
  <text x="96" y="124" fill="#F0F6FC" font-family="Inter, Arial, sans-serif" font-size="54" font-weight="750" letter-spacing="0">DerMayer1</text>
  <text x="100" y="166" fill="#C9D1D9" font-family="Inter, Arial, sans-serif" font-size="21" font-weight="450" letter-spacing="0">Operational software for real business workflows.</text>
  <text x="100" y="206" fill="#8B949E" font-family="SFMono-Regular, Consolas, monospace" font-size="15" letter-spacing="0">markets / automation / ai systems / orchestration / memory</text>
  <g font-family="Inter, Arial, sans-serif" font-size="13" fill="#8B949E" letter-spacing="0">
    <text x="96" y="264">workflow infrastructure</text>
    <text x="396" y="264">decision support</text>
    <text x="660" y="264">agent coordination</text>
    <text x="918" y="264">B2B AaaS</text>
  </g>
</svg>
